<svg height="480pt" viewBox="-5 0 480 480.00186" width="480pt" xmlns="http://www.w3.org/2000/svg" xmlns:xlink="http://www.w3.org/1999/xlink"><linearGradient id="a"><stop offset="0" stop-color="#20d6de"/><stop offset="1" stop-color="#c24ad2"/></linearGradient><linearGradient id="b" gradientUnits="userSpaceOnUse" x1="-9.372861" x2="468.083139" xlink:href="#a" y1="240.008" y2="240.008"/><linearGradient id="c" gradientUnits="userSpaceOnUse" x1="-9.372861" x2="468.083139" xlink:href="#a" y1="187.808" y2="187.808"/><linearGradient id="d" gradientUnits="userSpaceOnUse" x1="-9.372861" x2="468.083139" xlink:href="#a" y1="188" y2="188"/><linearGradient id="e" gradientUnits="userSpaceOnUse" x1="-9.372861" x2="468.083139" xlink:href="#a" y1="296" y2="296"/><linearGradient id="f" gradientUnits="userSpaceOnUse" x1="-9.372861" x2="468.083139" xlink:href="#a" y1="253.76" y2="253.76"/><linearGradient id="g" gradientUnits="userSpaceOnUse" x1="-9.372861" x2="468.083139" xlink:href="#a" y1="253.784" y2="253.784"/><linearGradient id="h" gradientUnits="userSpaceOnUse" x1="-9.372861" x2="468.083139" xlink:href="#a" y1="328" y2="328"/><linearGradient id="i" gradientUnits="userSpaceOnUse" x1="-9.372861" x2="468.083139" xlink:href="#a" y1="416" y2="416"/><linearGradient id="j" gradientUnits="userSpaceOnUse" x1="-9.372861" x2="468.083139" xlink:href="#a" y1="88" y2="88"/><linearGradient id="k" gradientUnits="userSpaceOnUse" x1="-9.372861" x2="468.083139" xlink:href="#a" y1="72" y2="72"/><linearGradient id="l" gradientUnits="userSpaceOnUse" x1="-9.372861" x2="468.083139" xlink:href="#a" y1="408" y2="408"/><path d="m78.628906 204.6875-26.347656-26.34375c-11.957031-11.960938-31.351562-11.960938-43.308594 0-11.960937 11.960938-11.960937 31.351562 0 43.3125l70.054688 70.054688c9.230468 72.921874 37.265625 162.191406 117.863281 180.097656 24.203125 5.421875 48.933594 8.167968 73.738281 8.191406 71.171875.242188 140.453125-22.910156 197.183594-65.886719 2.566406-2.171875 3.503906-5.714843 2.347656-8.871093-1.160156-3.15625-4.171875-5.25-7.53125-5.242188-.800781 0-80-1.089844-80-40v-60.6875l77.652344-77.65625c11.960938-11.960938 11.960938-31.351562 0-43.3125-11.957031-11.960938-31.351562-11.960938-43.308594 0l-34.34375 34.34375v-60.6875c0-83.949219-68.054687-152-152-152-83.949218 0-152 68.050781-152 152zm11.0625 26.703125c2.988282-1.238281 4.9375-4.15625 4.9375-7.390625v-72c-.070312-45.191406 22.34375-87.453125 59.796875-112.746094 37.449219-25.289062 85.03125-30.289062 126.921875-13.34375l-18.097656 12.058594-6.96875-8.703125-37.34375 25.007813 6.890625 8.628906-15.664063 10.402344 8.878907 13.3125 16.800781-11.203126 8.0625 10.058594-17.765625 11.847656 8.878906 13.3125 18.9375-12.625 6.957031 8.6875 37.359376-24.902343-6.949219-8.695313 15.695312-10.464844-8.878906-13.3125-16.847656 11.199219-8.011719-10.007812 17.785156-11.855469-8.101562-12.152344c50.617187 21.160156 83.597656 70.628906 83.664062 125.496094v80c0 3.234375 1.949219 6.152344 4.9375 7.390625 2.988282 1.238281 6.429688.550781 8.714844-1.734375l48-48c5.75-5.503906 14.84375-5.40625 20.46875.21875 5.628906 5.628906 5.726562 14.722656.222656 20.46875l-80 80c-1.5 1.5-2.34375 3.535156-2.34375 5.65625v64c0 38.574219 44.695313 50.585938 73.132813 54.320312-71.183594 44.902344-157.199219 59.945313-239.398438 41.871094-72.480469-16.101562-97.535156-100.871094-105.792969-169.152344-.214843-1.777343-1.019531-3.429687-2.289062-4.695312l-72-72c-5.503906-5.746094-5.40625-14.839844.222656-20.46875 5.625-5.625 14.71875-5.722656 20.46875-.21875l40 40c2.285156 2.289062 5.726563 2.972656 8.71875 1.734375zm185.238282-153.207031-10.636719 7.097656-21.976563-27.417969 10.65625-7.128906zm0 0" fill="url(#b)"/><path d="m166.628906 240c31.859375.011719 58.980469-23.195312 63.886719-54.679688.59375-3.558593-1.261719-7.074218-4.535156-8.585937l-87.519531-40.390625c-2.917969-1.34375-6.355469-.8125-8.730469 1.34375-12.140625 12.371094-18.992188 28.980469-19.101563 46.3125-.160156 14.902344 5.6875 29.238281 16.222656 39.773438 10.539063 10.539062 24.875 16.386718 39.777344 16.226562zm-29.601562-86.695312 76.246094 35.199218c-5.464844 21.199219-24.757813 35.878906-46.644532 35.496094-10.644531.117188-20.886718-4.058594-28.414062-11.585938-7.527344-7.527343-11.703125-17.769531-11.585938-28.414062.226563-11.058594 3.855469-21.777344 10.398438-30.695312zm0 0" fill="url(#c)"/><path d="m294.628906 240c14.898438.160156 29.234375-5.6875 39.773438-16.226562 10.535156-10.535157 16.386718-24.871094 16.226562-39.773438.082032-17.164062-6.613281-33.664062-18.625-45.921875-2.367187-2.144531-5.78125-2.679687-8.6875-1.359375l-88 40c-3.296875 1.5-5.175781 5.027344-4.578125 8.601562 4.90625 31.484376 32.027344 54.691407 63.890625 54.679688zm30.046875-86.328125c6.367188 8.839844 9.84375 19.433594 9.953125 30.328125.113282 10.644531-4.0625 20.886719-11.589844 28.414062-7.527343 7.527344-17.769531 11.703126-28.410156 11.585938-21.839844.269531-41.058594-14.363281-46.601562-35.488281zm0 0" fill="url(#d)"/><path d="m222.628906 240c-24.671875 0-40 21.457031-40 56 1.519532 30.273438 25.722656 54.476562 56 56 24.671875 0 40-21.457031 40-56-1.523437-30.273438-25.726562-54.476562-56-56zm16 96c-21.394531-1.601562-38.398437-18.609375-40-40 0-9.382812 1.726563-40 24-40 21.390625 1.601562 38.394532 18.609375 40 40 0 9.382812-1.730468 40-24 40zm0 0" fill="url(#e)"/><path d="m158.628906 272v-16c-16.242187.058594-31.566406-7.523438-41.371094-20.472656l-13.285156 8.914062c12.800782 17.351563 33.089844 27.582032 54.65625 27.558594zm0 0" fill="url(#f)"/><path d="m294.628906 256v16c1.804688 0 44.496094-.3125 62.652344-27.558594l-13.308594-8.882812c-13.394531 20.097656-49 20.441406-49.34375 20.441406zm0 0" fill="url(#g)"/><path d="m430.628906 296c-17.675781 0-32 14.328125-32 32s14.324219 32 32 32c17.671875 0 32-14.328125 32-32s-14.328125-32-32-32zm0 48c-8.839844 0-16-7.164062-16-16s7.160156-16 16-16c8.835938 0 16 7.164062 16 16s-7.164062 16-16 16zm0 0" fill="url(#h)"/><path d="m14.628906 416c0 22.089844 17.90625 40 40 40 22.089844 0 40-17.910156 40-40s-17.910156-40-40-40c-22.082031.027344-39.976562 17.917969-40 40zm64 0c0 13.253906-10.746094 24-24 24-13.257812 0-24-10.746094-24-24s10.742188-24 24-24c13.253906 0 24 10.746094 24 24zm0 0" fill="url(#i)"/><path d="m134.628906 80h16v16h-16zm0 0" fill="url(#j)"/><path d="m166.628906 64h16v16h-16zm0 0" fill="url(#k)"/><path d="m350.628906 400h16v16h-16zm0 0" fill="url(#l)"/></svg>